<svg id="Carpe Symphonic Band Brandmark" xmlns="http://www.w3.org/2000/svg" viewBox="0 0 752.39 433.12">
  <g>
    <g id="CARPE">
      <g>
        <path d="M357.43,364.22c-6.68,0-13.12-1.29-19.2-3.87-5.72-2.46-10.97-5.87-15.5-10.33-4.53-4.34-7.99-9.5-10.49-15.25-2.62-5.87-3.82-12.09-3.82-18.42s1.31-12.67,3.82-18.54c2.5-5.63,6.08-10.8,10.61-15.14,4.53-4.46,9.9-7.86,15.74-10.33,6.08-2.46,12.52-3.75,19.08-3.75,10.73,0,20.75,3.29,29.1,9.62,2.62,2,3.1,5.63,1.19,8.21-2.03,2.58-5.84,3.05-8.35,1.17-6.32-4.81-13.83-7.27-21.94-7.27-5.01,0-9.9.94-14.55,2.82-4.41,1.88-8.47,4.46-11.92,7.86s-6.08,7.16-7.99,11.5c-1.91,4.34-2.86,9.03-2.86,13.85s.95,9.39,2.86,13.85c1.91,4.34,4.53,8.21,7.99,11.5,7.04,6.92,16.34,10.8,26.23,10.8,4.41,0,8.59-.82,12.64-2.23,3.94-1.41,7.51-3.52,10.73-6.1,2.5-2.11,6.2-1.76,8.35.7,2.15,2.46,1.79,6.22-.71,8.21-4.29,3.52-9.06,6.22-14.19,8.1-5.37,2-11.09,3.05-16.81,3.05h0Z" style="fill: #7c1f1e; stroke: #7c1f1e; stroke-miterlimit: 10;"/>
        <path d="M483.71,363.4c-2.74,1.17-6.32.23-7.99-2.93l-8.23-18.07c-7.75-1.88-15.5-2-23.01-.35-6.08,1.17-12.04,3.4-17.89,6.92-5.96,3.64-12.16,8.45-16.69,12.79-2.27,2.23-5.25,2.93-7.75,1.41-2.62-1.64-2.27-4.93-1.07-7.63l37.68-80.49c1.07-2.11,3.1-3.4,5.48-3.4s4.53,1.41,5.37,3.4l37.09,80.49c1.31,3.05,0,6.45-2.98,7.86h0ZM444.12,291.59l-22.9,47.99c6.32-3.52,14.67-6.69,21.34-7.98,6.44-1.41,13-1.64,19.56-1.06l-18.01-38.96Z" style="fill: #7c1f1e; stroke: #7c1f1e; stroke-miterlimit: 10;"/>
        <path d="M568.97,363.75c-2.74,0-5.25-2-5.84-4.81-1.43-7.16-3.7-12.91-6.8-17.25-2.27-3.29-5.13-5.63-8.35-7.16-2.5-1.29-5.01-1.76-6.92-1.88-1.55,0-3.22.12-4.89.12-2.98,0-5.6-2.35-5.84-5.4-.36-2.93,1.79-5.75,4.77-6.22.48-.12,2.74-.59,6.08-.35,6.2-.35,11.09-1.64,14.67-3.64,5.25-2.93,7.75-7.51,7.75-14.43,0-4.69-.95-8.57-2.62-11.62-1.31-2.23-3.22-3.99-5.48-5.4-4.29-2.35-8.71-2.46-9.06-2.46h-29.45v74.63c0,3.17-2.62,5.87-5.96,5.87s-5.96-2.7-5.96-5.87v-80.5c0-3.29,2.74-5.87,5.96-5.87h35.42c.48,0,3.34,0,7.04.94,5.25,1.29,9.9,3.75,13.48,7.27,2.62,2.58,4.77,5.75,6.2,9.39,1.55,3.99,2.38,8.57,2.38,13.61,0,11.03-4.77,19.59-13.71,24.64-.6.35-1.19.59-1.91.94,2.15,1.76,4.05,3.75,5.84,6.1,4.29,5.75,7.27,13.26,9.06,22.29.6,3.17-1.43,6.34-4.65,6.92-.48,0-.83.12-1.19.12h0Z" style="fill: #7c1f1e; stroke: #7c1f1e; stroke-miterlimit: 10;"/>
        <path d="M599.97,363.87c-3.22,0-5.96-2.58-5.96-5.87v-80.49c0-3.29,2.74-5.87,5.96-5.87h35.42c.48,0,3.34,0,7.04.94,5.25,1.29,9.9,3.87,13.48,7.27,2.62,2.58,4.77,5.75,6.2,9.39,1.55,3.99,2.38,8.57,2.38,13.61,0,11.15-4.77,19.6-13.71,24.64-6.44,3.64-15.02,5.4-25.64,5.4-3.22,0-5.96-2.58-5.96-5.87s2.74-5.87,5.96-5.87c8.47,0,15.14-1.29,19.68-3.87,5.25-2.93,7.75-7.51,7.75-14.43,0-4.69-.95-8.57-2.62-11.5-1.31-2.35-3.22-4.11-5.48-5.4-4.29-2.46-8.71-2.58-9.06-2.58h-29.45v74.63c0,3.29-2.62,5.87-5.96,5.87h0Z" style="fill: #7c1f1e; stroke: #7c1f1e; stroke-miterlimit: 10;"/>
        <path d="M751.89,358c0,3.29-2.62,5.87-5.96,5.87h-57c-3.22,0-5.96-2.58-5.96-5.87v-80.49c0-3.29,2.74-5.87,5.96-5.87h55.81c3.34,0,5.96,2.58,5.96,5.87s-2.62,5.87-5.96,5.87h-49.84v28.28h44.12c3.34,0,5.96,2.7,5.96,5.87s-2.62,5.87-5.96,5.87h-44.12v28.75h51.04c3.34,0,5.96,2.58,5.96,5.87h0Z" style="fill: #7c1f1e; stroke: #7c1f1e; stroke-miterlimit: 10;"/>
      </g>
    </g>
    <g id="LOGO">
      <path d="M144.93,351.3c-32.44,55.83,46.12,94.3,84.6,57.07C303.41,336.9,74.3,77.06,177.37,18.6c71.67-40.65,118.99,75,25.16,93.55C140.58,124.39-.67,141.57,10.64,237.38c8.08,68.38,87.51,91.28,169.63,17.4,87.71-78.92,135.73,20.96,84.08,57.07-74.56,52.13-137.57-14.83-124.91-77.24,16-78.9,164.57-139.58,226.41-76.98,49.44,50.04-9.33,108.63-55.63,82.16" style="fill: none; stroke: #7c1f1e; stroke-linecap: round; stroke-miterlimit: 10; stroke-width: 20px;"/>
    </g>
    <g id="SYMPHONIC BAND">
      <path d="M322.02,408.73c-1.06,0-2.16-.08-3.22-.24-1.95-.33-3.79-.9-5.21-1.71-1.79-.94-2.97-2.2-3.46-3.58-.49-1.43,1.02-3.22,2.48-2.48.37.2.61.57.85.9,1.47,1.79,3.75,2.56,5.94,2.93,1.87.29,3.79.24,5.33-.08,1.91-.41,3.75-1.38,4.48-3.26.37-.94.45-2,.12-2.93-.94-2.77-4.4-3.79-7.33-4.4-1.95-.41-3.91-.9-5.74-1.67-1.95-.77-3.91-1.95-5.01-3.83-1.34-2.24-1.1-5.78-.28-7.45,2.48-4.97,7.29-5.54,10.1-5.54,2.12,0,4.31.37,6.07,1.06,2.24.85,3.99,2.32,4.52,3.87.24.65.08,1.38-.37,1.91-.49.61-1.38.9-2.12.49-.2-.12-.37-.33-.57-.49-.81-.9-2.04-1.75-3.54-2.32-1.26-.49-2.65-.53-3.99-.53-3.18,0-6.8,1.22-6.8,4.93,0,3.42,2.97,4.44,9.77,6.11,8.71,2.12,9.85,6.92,9.04,10.99-1.22,6.07-8.39,7.33-11.07,7.33Z" style="fill: #7c1f1e; stroke: #7c1f1e; stroke-miterlimit: 10;"/>
      <path d="M366.27,379.25l-10.63,15.88v10.91c0,1.1-.9,2.04-2.04,2.04s-2.04-.94-2.04-2.04v-10.91l-10.58-15.88c-.61-.94-.37-2.2.57-2.85.94-.61,2.2-.37,2.81.57l9.24,13.88,9.28-13.88c.61-.94,1.87-1.18,2.81-.57.94.65,1.18,1.91.57,2.85Z" style="fill: #7c1f1e; stroke: #7c1f1e; stroke-miterlimit: 10;"/>
      <path d="M403.44,408.08c-1.1,0-2.08-.94-2.08-2.04v-20.56l-10.01,16.81c-.37.53-.98.81-1.63.81s-1.26-.29-1.67-.81l-10.06-16.81v20.56c0,1.1-.9,2.04-2.04,2.04s-2.04-.94-2.04-2.04v-28.01c0-.9.57-1.67,1.42-1.95.81-.29,1.75.04,2.28.73l12.09,20.4,12.05-20.4c.57-.69,1.47-1.02,2.32-.73.81.28,1.38,1.06,1.38,1.95v28.01c0,1.1-.9,2.04-2.04,2.04Z" style="fill: #7c1f1e; stroke: #7c1f1e; stroke-miterlimit: 10;"/>
      <path d="M414.84,408.08c-1.1,0-2.04-.9-2.04-2.04v-27.93c0-1.14.94-2.04,2.04-2.04h12.09c.16,0,1.14,0,2.4.33,1.79.45,3.38,1.34,4.6,2.52.9.9,1.63,1.99,2.12,3.26.53,1.38.81,2.97.81,4.72,0,3.87-1.63,6.8-4.68,8.55-2.2,1.26-5.13,1.87-8.75,1.87-1.1,0-2.04-.9-2.04-2.04s.94-2.04,2.04-2.04c2.89,0,5.17-.45,6.72-1.34,1.79-1.02,2.65-2.61,2.65-5.01,0-1.63-.33-2.97-.9-3.99-.45-.81-1.1-1.42-1.87-1.87-1.46-.86-2.97-.9-3.09-.9h-10.06v25.89c0,1.14-.9,2.04-2.04,2.04Z" style="fill: #7c1f1e; stroke: #7c1f1e; stroke-miterlimit: 10;"/>
      <path d="M469.88,378.11v27.93c0,1.1-.9,2.04-2.04,2.04s-2.04-.94-2.04-2.04v-12.29h-17.55v12.29c0,1.1-.9,2.04-2.04,2.04s-2.04-.94-2.04-2.04v-27.93c0-1.14.9-2.04,2.04-2.04s2.04.9,2.04,2.04v11.56h17.55v-11.56c0-1.14.94-2.04,2.04-2.04s2.04.9,2.04,2.04Z" style="fill: #7c1f1e; stroke: #7c1f1e; stroke-miterlimit: 10;"/>
      <path d="M493.74,408.77c-2.24,0-4.44-.45-6.51-1.34-2-.85-3.79-2.04-5.33-3.58-1.51-1.55-2.73-3.3-3.58-5.29-.85-2.04-1.3-4.19-1.3-6.39s.45-4.4,1.34-6.43c.85-1.95,2.08-3.75,3.62-5.25,1.55-1.55,3.34-2.73,5.33-3.58,2.08-.85,4.27-1.3,6.55-1.3,4.44,0,8.59,1.75,11.68,4.93,1.51,1.51,2.65,3.3,3.46,5.25.86,2.04,1.26,4.19,1.26,6.39s-.41,4.4-1.26,6.39c-.81,2-1.99,3.79-3.5,5.29-3.13,3.18-7.29,4.93-11.76,4.93ZM493.86,379.66c-1.71,0-3.38.33-4.97.98-1.55.65-2.89,1.55-4.07,2.73-1.18,1.14-2.12,2.48-2.73,3.99-.69,1.51-1.02,3.13-1.02,4.8s.33,3.26.98,4.8c.65,1.51,1.55,2.85,2.73,3.99,2.4,2.4,5.58,3.75,8.96,3.75s6.51-1.34,8.87-3.71c1.14-1.14,2-2.48,2.65-3.99.61-1.55.94-3.18.94-4.84,0-3.34-1.26-6.47-3.54-8.79-2.32-2.4-5.46-3.71-8.79-3.71Z" style="fill: #7c1f1e; stroke: #7c1f1e; stroke-miterlimit: 10;"/>
      <path d="M543.49,407.91c-.81.24-1.83.12-2.36-.53l-19.66-23.65v22.31c0,1.14-.9,2.04-2.04,2.04s-2.04-.9-2.04-2.04v-27.93c0-.85.53-1.63,1.34-1.91.81-.29,1.71-.04,2.24.61l19.7,23.61v-22.35c0-1.14.9-2.04,2.04-2.04s2.04.9,2.04,2.04v28.01c0,.86-.41,1.59-1.26,1.83Z" style="fill: #7c1f1e; stroke: #7c1f1e; stroke-miterlimit: 10;"/>
      <path d="M554.32,408.08c-1.1,0-2.04-.9-2.04-2.04v-27.93c0-1.1.94-2.04,2.04-2.04s2.04.94,2.04,2.04v27.93c0,1.14-.9,2.04-2.04,2.04Z" style="fill: #7c1f1e; stroke: #7c1f1e; stroke-miterlimit: 10;"/>
      <path d="M580.61,408.6c-2.28,0-4.48-.45-6.55-1.34-1.95-.85-3.75-2.04-5.29-3.58-1.55-1.51-2.73-3.3-3.58-5.29-.9-2.04-1.3-4.19-1.3-6.39s.45-4.4,1.3-6.43c.86-1.95,2.08-3.75,3.62-5.25,1.55-1.55,3.38-2.73,5.37-3.58,2.08-.86,4.28-1.3,6.51-1.3,3.66,0,7.08,1.14,9.93,3.34.9.69,1.06,1.95.41,2.85-.69.9-2,1.06-2.85.41-2.16-1.67-4.72-2.52-7.49-2.52-1.71,0-3.38.33-4.97.98-1.51.65-2.89,1.55-4.07,2.73s-2.08,2.48-2.73,3.99c-.65,1.51-.98,3.13-.98,4.8s.33,3.26.98,4.8c.65,1.51,1.55,2.85,2.73,3.99,2.4,2.4,5.58,3.75,8.96,3.75,1.51,0,2.93-.29,4.32-.77,1.34-.49,2.56-1.22,3.66-2.12.85-.73,2.12-.61,2.85.25.73.85.61,2.16-.24,2.85-1.47,1.22-3.09,2.16-4.84,2.81-1.83.69-3.79,1.06-5.74,1.06Z" style="fill: #7c1f1e; stroke: #7c1f1e; stroke-miterlimit: 10;"/>
      <path d="M644.04,399.93c-.41,5.05-4.19,8.14-9.61,8.14h-14c-.53,0-1.06-.2-1.42-.57-.37-.41-.61-.9-.61-1.46v-27.93c0-1.14.94-2.04,2.04-2.04h12.05c5.33,0,9.04,2.4,9.73,7.33.53,3.83-1.1,6.19-3.01,7.57,2.69.94,5.21,4.36,4.84,8.96ZM639.97,399.57c.41-3.99-1.79-5.94-5.78-5.94h-.12l-3.17.04h-.04c-1.1,0-2-.94-2.04-2.04,0-1.14.94-2.04,2.04-2.04l3.09-.04c3.01-.33,4.6-2.36,4.23-5.66-.33-2.65-2.24-3.75-5.7-3.75h-10.01v23.82h11.97c3.3,0,5.25-1.38,5.54-4.4Z" style="fill: #7c1f1e; stroke: #7c1f1e; stroke-miterlimit: 10;"/>
      <path d="M679.34,407.91c-.94.41-2.16.08-2.73-1.02l-2.81-6.27c-2.65-.65-5.29-.69-7.86-.12-2.08.41-4.11,1.18-6.11,2.4-2.04,1.26-4.15,2.93-5.7,4.44-.77.77-1.79,1.02-2.65.49-.9-.57-.77-1.71-.37-2.65l12.86-27.93c.37-.73,1.06-1.18,1.87-1.18s1.55.49,1.83,1.18l12.66,27.93c.45,1.06,0,2.24-1.02,2.73ZM665.82,383l-7.82,16.65c2.16-1.22,5.01-2.32,7.29-2.77,2.2-.49,4.44-.57,6.68-.37l-6.15-13.52Z" style="fill: #7c1f1e; stroke: #7c1f1e; stroke-miterlimit: 10;"/>
      <path d="M713.74,407.91c-.81.24-1.83.12-2.36-.53l-19.66-23.65v22.31c0,1.14-.9,2.04-2.04,2.04s-2.04-.9-2.04-2.04v-27.93c0-.85.53-1.63,1.34-1.91.81-.29,1.71-.04,2.24.61l19.7,23.61v-22.35c0-1.14.9-2.04,2.04-2.04s2.04.9,2.04,2.04v28.01c0,.86-.41,1.59-1.26,1.83Z" style="fill: #7c1f1e; stroke: #7c1f1e; stroke-miterlimit: 10;"/>
      <path d="M733.65,408.08h-9.24c-1.18,0-2.08-.94-2.08-2.04v-27.93c0-.53.2-1.06.61-1.42.37-.37.94-.61,1.47-.61h9.32c2.24,0,4.4.45,6.39,1.26,1.95.81,3.75,2,5.29,3.46,1.51,1.47,2.69,3.18,3.54,5.13.86,2,1.3,4.07,1.3,6.23s-.45,4.15-1.34,6.11c-.85,1.91-2.04,3.62-3.58,5.09-1.55,1.51-3.34,2.65-5.29,3.46-2.04.81-4.19,1.26-6.39,1.26ZM726.44,403.96h7.29c1.67-.04,3.26-.37,4.76-.98,1.51-.61,2.85-1.47,3.99-2.56,1.14-1.1,2.04-2.4,2.73-3.83.65-1.42.98-2.89.98-4.44s-.33-3.13-.98-4.6c-.65-1.43-1.55-2.73-2.69-3.83-2.36-2.32-5.46-3.58-8.79-3.58h-7.29v23.82Z" style="fill: #7c1f1e; stroke: #7c1f1e; stroke-miterlimit: 10;"/>
    </g>
  </g>
</svg>